<svg fill="none" xmlns="http://www.w3.org/2000/svg" viewBox="0 0 32 32"><path d="M6.857 27.429h21.714V2.286A2.286 2.286 0 0 0 26.286 0H6.857Z" fill="#533566" style="stroke-width:1.14286"/><path d="M4.571 28.571h24v2.286h-24Z" fill="#d3d3d3" style="stroke-width:1.14286"/><path d="M12 5.714c0-.63.512-1.143 1.143-1.143h5.714c.631 0 1.143.512 1.143 1.143V8c0 .631-.512 1.143-1.143 1.143h-5.714A1.143 1.143 0 0 1 12 8Z" fill="#fff" style="stroke-width:1.14286"/><path d="M5.143 0c-.947 0-1.714.768-1.714 1.714v28H4.57c0-.63.512-1.143 1.143-1.143h1.143V0Z" fill="#321b41" style="stroke-width:1.14286"/><path d="M5.143 27.429c-.947 0-1.714.767-1.714 1.714v1.143c0 .946.767 1.714 1.714 1.714h21.81c.746 0 1.381-.477 1.617-1.143H5.714a1.143 1.143 0 1 1 0-2.286h22.857V27.43z" fill="#6b438b" style="stroke-width:1.14286"/><path d="M24 0h1.143v32H24z" fill="#6b438b" style="stroke-width:1.14286"/></svg>
